<?xml version="1.0" standalone="no"?>
<!DOCTYPE svg PUBLIC "-//W3C//DTD SVG 20010904//EN"
 "http://www.w3.org/TR/2001/REC-SVG-20010904/DTD/svg10.dtd">
<svg version="1.0" xmlns="http://www.w3.org/2000/svg"
 width="1920.000000pt" height="1080.000000pt" viewBox="0 0 1920.000000 1080.000000"
 preserveAspectRatio="xMidYMid meet">
<metadata>
Created by potrace 1.16, written by Peter Selinger 2001-2019
</metadata>
<g transform="translate(0.000000,1080.000000) scale(0.100000,-0.100000)"
fill="#000000" stroke="none">
<path d="M4073 10783 c13 -16 13 -20 1 -31 -16 -15 -19 -62 -4 -62 6 0 9 3 9
8 -5 28 4 31 79 30 42 0 82 0 87 2 6 1 20 2 32 1 16 -1 21 -5 16 -17 -8 -23
14 -34 69 -34 74 0 72 -35 -2 -42 -21 -2 -34 -8 -33 -15 2 -7 -3 -12 -10 -10
-8 1 -11 -10 -10 -35 1 -21 -2 -38 -7 -38 -6 0 -10 5 -10 10 0 16 -43 12 -69
-6 -24 -17 -37 -11 -43 20 -2 13 -15 23 -36 28 -18 5 -30 13 -28 17 3 5 -3 18
-13 29 l-18 22 -10 -23 c-8 -17 -7 -26 4 -36 11 -10 12 -16 3 -25 -9 -8 -14
-8 -17 2 -3 6 -13 12 -22 12 -15 0 -18 -8 -18 -41 l0 -40 91 2 c85 2 91 1 94
-18 2 -13 -10 -34 -30 -54 -37 -38 -45 -59 -24 -59 8 0 16 -4 18 -8 6 -17 66
-22 78 -7 16 20 30 19 30 -1 0 -26 24 -10 32 23 4 17 15 33 23 36 17 7 30 -9
15 -18 -16 -10 -12 -44 8 -64 32 -33 48 -32 68 4 15 28 23 33 41 29 18 -5 23
-2 23 12 1 18 1 18 14 1 14 -18 15 -18 24 0 14 25 26 10 12 -16 -9 -18 -8 -21
11 -21 17 0 20 5 17 23 -5 25 17 54 27 37 3 -6 1 -10 -4 -10 -6 0 -11 -4 -11
-10 0 -5 10 -10 22 -10 12 0 18 -3 14 -7 -3 -4 3 -12 15 -19 16 -8 29 -8 51 0
24 9 32 8 41 -4 7 -8 25 -17 41 -18 32 -4 74 -27 93 -52 10 -13 12 -13 18 2 4
9 14 15 23 13 9 -2 22 -4 29 -4 6 -1 13 -11 15 -23 2 -13 11 -24 22 -26 10 -2
16 0 12 6 -3 5 5 19 18 31 20 19 28 21 45 12 28 -15 26 -29 -4 -43 -21 -9 -23
-13 -11 -20 29 -16 7 -36 -35 -32 -21 3 -47 0 -57 -5 -15 -9 -15 -10 6 -11 30
0 28 -24 -3 -38 -14 -6 -25 -16 -25 -21 0 -15 -39 -20 -51 -5 -15 18 -43 18
-59 -1 -14 -17 -70 -21 -70 -4 0 5 -4 8 -9 4 -5 -3 -12 4 -16 15 -3 11 -11 20
-16 20 -5 0 -9 6 -9 14 0 23 -41 27 -69 6 -32 -22 -101 -37 -101 -21 0 18 -41
33 -75 27 -43 -8 -55 -43 -22 -68 12 -9 20 -18 17 -20 -31 -20 -50 -26 -55
-18 -3 6 -13 10 -21 10 -20 0 -18 -54 2 -75 13 -13 14 -18 3 -31 -11 -13 -11
-18 1 -28 9 -6 14 -21 12 -33 -3 -17 3 -24 22 -29 14 -3 26 -10 26 -15 0 -5
10 -3 23 5 15 10 27 12 37 6 8 -5 26 -10 40 -11 23 0 23 -1 5 -9 -11 -5 -16
-9 -11 -9 5 -1 -1 -10 -14 -21 -24 -21 -40 -18 -40 6 0 25 -56 17 -74 -11 -17
-25 -50 -33 -61 -15 -4 6 -10 8 -14 5 -5 -2 -17 2 -27 10 -25 19 -44 19 -44 0
0 -8 -5 -15 -12 -15 -6 0 -9 -3 -6 -6 10 -9 -40 -52 -64 -56 -30 -4 -37 -43
-10 -50 11 -3 26 -2 33 3 7 4 19 3 26 -2 7 -6 17 -8 23 -4 5 3 13 0 16 -8 4
-11 17 -13 48 -10 24 3 53 0 65 -7 18 -9 27 -8 51 7 28 17 30 21 30 44 0 6 10
9 23 7 14 -2 23 -11 25 -26 2 -13 10 -26 19 -29 11 -4 12 -8 2 -13 -9 -6 -9
-12 3 -23 16 -17 38 -5 38 20 0 8 13 13 35 13 19 0 35 5 35 10 0 6 10 10 23
11 21 1 21 1 -3 8 -21 6 -18 8 24 14 69 10 106 9 106 -3 0 -5 -5 -10 -10 -10
-18 0 -60 -48 -60 -68 0 -15 -6 -18 -23 -15 -15 3 -32 -4 -50 -21 -16 -14 -32
-26 -38 -26 -5 0 -9 -7 -9 -15 0 -8 5 -15 11 -15 5 0 7 -4 4 -10 -3 -5 -23
-10 -43 -10 -44 0 -72 -31 -51 -56 18 -22 51 -17 74 11 15 19 24 22 35 15 13
-9 11 -13 -10 -30 -14 -11 -37 -20 -51 -20 -39 0 -59 -21 -61 -63 -1 -34 -4
-37 -30 -37 -15 0 -28 -4 -28 -10 0 -6 -9 -6 -22 -2 -27 10 -86 -8 -81 -24 5
-16 -57 -10 -68 7 -4 7 -3 21 2 31 9 17 3 21 -27 17 -4 0 -11 5 -15 13 -6 9
-9 9 -9 1 0 -8 -9 -9 -32 -2 -21 6 -45 5 -71 -3 -31 -9 -40 -9 -47 2 -5 7 -23
14 -40 15 -17 1 -35 7 -39 14 -4 6 -27 14 -50 16 -32 3 -46 0 -61 -15 -21 -21
-35 -27 -25 -10 3 6 -3 10 -14 10 -12 0 -21 4 -21 8 0 10 -60 45 -60 35 0 -4
-4 -3 -8 4 -4 7 -23 14 -42 15 -28 2 -35 0 -34 -14 1 -10 -3 -18 -10 -19 -21
-1 29 -18 57 -18 15 -1 27 -5 27 -11 0 -5 7 -10 15 -10 25 0 35 -33 23 -76 -6
-21 -13 -34 -15 -27 -2 7 -14 2 -30 -13 -25 -23 -91 -35 -78 -14 3 6 -2 10
-12 10 -21 -1 -63 -33 -63 -49 0 -6 -6 -11 -14 -11 -8 0 -14 -6 -13 -12 1 -42
-9 -61 -62 -117 -32 -34 -68 -63 -80 -64 -11 -1 -21 -5 -21 -10 0 -5 -6 -4
-14 3 -8 6 -12 18 -10 25 9 22 -29 36 -66 24 -23 -9 -30 -16 -28 -33 2 -14 9
-20 22 -18 15 3 18 -1 12 -20 -3 -13 -6 -29 -6 -36 0 -8 -12 -12 -33 -10 -27
1 -41 -5 -66 -31 -29 -29 -37 -32 -85 -30 -29 1 -57 -1 -63 -4 -6 -4 -13 0
-17 8 -3 8 -16 15 -28 15 -18 0 -20 -2 -8 -10 11 -7 8 -11 -15 -20 -17 -6 -43
-14 -60 -17 -16 -3 -34 -12 -38 -20 -4 -7 -24 -13 -43 -13 -19 0 -43 -6 -54
-12 -16 -10 -25 -9 -50 6 -17 10 -32 16 -34 14 -16 -25 -22 -55 -12 -65 39
-42 43 -63 11 -63 -9 0 -13 -10 -12 -27 2 -24 -1 -28 -23 -25 -14 1 -26 7 -28
12 -2 6 -8 10 -13 10 -6 0 -7 -4 -4 -10 3 -5 -1 -10 -10 -10 -9 0 -14 -4 -11
-9 4 -5 -2 -7 -12 -4 -12 3 -23 -4 -32 -21 -12 -24 -11 -28 6 -41 18 -13 18
-14 -6 -9 -14 2 -19 2 -12 -2 21 -10 13 -24 -14 -24 -19 0 -25 4 -20 15 3 8 3
15 0 15 -8 0 -39 -33 -36 -38 2 -2 1 -6 -2 -9 -3 -4 -6 0 -6 9 0 12 -13 14
-62 13 -37 -1 -63 -6 -66 -13 -2 -7 -18 -12 -35 -11 -31 1 -31 1 -7 9 25 8 25
8 -5 10 -73 6 -85 5 -85 -3 0 -5 -8 -3 -17 4 -14 12 -16 12 -8 0 5 -9 4 -12
-2 -8 -6 4 -25 2 -44 -3 -25 -7 -38 -6 -56 5 -12 8 -35 15 -50 16 l-28 1 25 8
c21 7 19 8 -17 9 -23 1 -43 6 -45 13 -3 8 -12 4 -26 -10 -24 -24 -90 -30 -135
-13 -25 10 -45 -5 -60 -41 -6 -18 -71 -32 -128 -27 -19 1 -45 1 -59 0 -22 -1
-23 -3 -7 -12 9 -6 15 -14 12 -20 -4 -5 3 -9 14 -9 10 0 21 -5 23 -11 2 -6 24
-15 48 -19 50 -10 236 -3 260 10 17 8 54 -3 65 -19 3 -6 25 -11 47 -11 23 0
70 -5 105 -11 61 -11 64 -13 61 -38 -2 -14 -6 -25 -11 -23 -4 1 -14 -3 -21
-10 -10 -10 -11 -15 -2 -20 21 -14 34 -8 40 18 6 24 10 25 49 20 23 -3 47 -5
52 -6 6 0 3 -5 -5 -10 -10 -6 -11 -10 -2 -10 6 0 12 -7 12 -15 0 -16 12 -20
24 -8 13 14 67 11 73 -3 3 -9 23 -14 57 -15 28 0 45 -3 38 -6 -6 -2 -10 -9 -6
-14 7 -12 54 -12 54 1 0 6 11 10 24 10 15 0 27 7 30 18 3 9 16 22 28 27 18 8
24 20 26 53 l3 42 50 0 49 0 0 -40 c0 -36 3 -40 25 -40 23 0 25 4 25 40 0 39
1 40 35 40 34 0 35 -1 36 -42 0 -24 3 -37 6 -30 8 21 28 13 41 -18 13 -28 15
-29 35 -15 12 8 31 15 42 15 30 0 85 49 85 75 0 13 6 28 14 34 8 7 13 21 11
32 -2 11 0 17 6 14 5 -4 9 5 9 20 0 14 -7 28 -15 31 -19 8 -20 34 -1 34 8 0
21 8 28 19 13 18 27 19 84 6 26 -6 30 -12 32 -42 2 -25 -1 -33 -10 -27 -6 4
-2 -7 11 -25 13 -18 22 -34 20 -35 -2 -2 -13 -8 -25 -14 -16 -9 -22 -7 -32 9
-13 21 -37 25 -48 8 -3 -6 -1 -16 5 -22 14 -14 14 -57 0 -57 -6 0 -17 7 -25
15 -9 8 -23 15 -32 14 -10 0 -12 -3 -5 -6 10 -3 9 -8 -2 -20 -16 -15 -11 -38
6 -28 5 4 9 0 9 -7 0 -9 3 -9 10 2 8 13 10 13 10 -1 0 -12 8 -17 28 -16 73 3
130 -4 148 -18 17 -14 14 -15 -42 -9 -70 7 -99 -4 -106 -40 -7 -34 25 -46 117
-46 43 0 75 -4 75 -10 0 -5 -5 -10 -10 -10 -6 0 -3 -11 6 -25 18 -27 50 -32
78 -12 19 14 146 14 168 1 7 -4 8 -3 4 4 -5 8 1 12 17 12 14 0 28 -7 31 -16
12 -31 136 10 136 46 0 10 9 20 21 23 17 4 19 3 10 -6 -21 -21 -13 -39 17 -33
70 15 112 14 125 -3 9 -13 24 -17 62 -15 28 2 57 3 65 4 13 0 13 1 0 10 -11 7
0 10 38 10 28 0 52 -4 52 -10 0 -6 25 -10 58 -9 42 0 52 3 37 9 -14 7 -5 9 31
7 29 -1 50 -5 47 -9 -2 -5 -1 -8 4 -8 124 -4 155 -8 161 -17 7 -10 70 -17 146
-14 22 0 44 -3 50 -8 7 -6 24 -8 39 -7 15 2 27 -1 27 -5 0 -5 -4 -9 -10 -9 -5
0 -7 -7 -3 -16 3 -8 12 -13 19 -10 7 3 16 1 19 -4 4 -6 -5 -14 -19 -20 -29
-11 -34 -28 -11 -36 28 -11 62 5 86 41 20 29 30 35 61 35 20 0 40 -4 43 -10 4
-6 -5 -10 -21 -10 -27 0 -27 0 -8 -21 10 -11 20 -16 22 -10 2 6 21 11 42 11
32 0 38 -4 42 -25 3 -13 2 -23 -1 -21 -3 3 -17 -2 -31 -9 -23 -13 -20 -13 33
-8 48 5 57 3 57 -10 0 -24 37 -31 66 -12 21 13 31 14 60 5 19 -7 42 -9 50 -6
9 3 12 1 9 -4 -4 -6 12 -10 40 -10 31 0 47 5 51 15 4 8 15 15 27 15 11 0 29 7
38 16 21 19 95 31 84 14 -3 -5 -17 -10 -29 -10 -13 0 -30 -8 -37 -17 -8 -9 -9
-14 -2 -10 6 4 19 4 29 0 16 -6 15 -7 -2 -20 -18 -14 -18 -15 4 -33 18 -15 22
-28 22 -72 0 -30 -7 -80 -15 -111 -18 -70 -11 -232 12 -259 13 -15 12 -18 -14
-31 -35 -18 -205 -25 -828 -32 -253 -3 -640 -10 -859 -15 -220 -6 -402 -7
-405 -4 -3 3 -9 38 -13 77 -20 213 -27 330 -22 338 3 5 14 9 25 9 28 0 21 34
-9 38 -21 3 -22 8 -22 78 0 58 -3 74 -15 74 -23 0 -33 -29 -24 -69 14 -58 11
-78 -11 -84 -25 -7 -26 -37 -1 -37 29 0 30 -21 23 -337 l-2 -93 -42 0 c-51 0
-22 39 -275 -375 l-183 -299 43 -17 42 -17 3 -81 c2 -63 0 -81 -11 -81 -8 0
-34 -19 -58 -42 -147 -142 -222 -208 -230 -203 -17 11 -54 18 -109 22 -77 4
-104 8 -118 17 -7 4 -19 3 -26 -3 -7 -6 -15 -8 -18 -5 -3 2 -16 7 -29 9 -13 3
-35 7 -49 10 -14 3 -59 8 -100 11 -41 3 -99 12 -128 21 -40 11 -59 13 -75 5
-13 -7 -38 -8 -61 -4 -34 6 -43 13 -62 52 -13 25 -24 54 -24 66 0 11 -10 29
-21 40 -19 17 -38 19 -154 19 -73 0 -137 4 -141 8 -5 4 -8 18 -9 31 0 15 -26
51 -71 98 l-71 75 -154 -5 c-118 -3 -158 -8 -171 -20 -16 -13 -18 -13 -24 3
-5 12 -1 23 12 32 18 14 18 15 -14 41 -32 26 -32 29 -32 108 0 53 -5 92 -15
110 -21 40 -20 167 1 188 8 9 23 16 32 16 9 0 -1 9 -23 19 -43 20 -137 97
-199 164 -29 31 -40 38 -44 27 -9 -27 -173 -185 -205 -197 -32 -11 -32 -11 -5
-12 15 -1 30 -6 34 -13 4 -6 9 -50 11 -97 3 -71 1 -88 -13 -98 -9 -6 -13 -17
-9 -23 4 -6 8 -53 9 -103 l1 -91 -32 -8 c-39 -10 -41 -19 -10 -33 12 -6 20
-17 18 -25 -4 -19 -5 -52 -2 -115 1 -27 -1 -73 -4 -101 l-7 -50 -202 2 c-110
0 -217 4 -237 8 -32 7 -38 5 -53 -19 -16 -24 -17 -47 -12 -213 3 -103 6 -203
5 -222 0 -19 -3 -1384 -5 -3033 l-4 -2997 7189 0 c5004 0 7192 3 7196 10 5 8
11 8 19 1 9 -8 762 -11 2404 -11 l2392 0 0 2499 c0 1656 -3 2500 -10 2503 -11
3 -12 28 -8 293 l3 180 -72 3 c-47 2 -75 8 -83 17 -9 11 -36 15 -106 15 -71 0
-96 4 -108 16 -9 8 -20 13 -24 10 -11 -7 -165 -18 -221 -16 -24 0 -54 6 -65
13 -12 6 -30 10 -42 8 -11 -1 -27 5 -34 13 -9 12 -31 16 -77 16 -48 0 -95 10
-185 40 -67 22 -131 40 -143 40 -28 0 -148 41 -205 70 -25 13 -77 45 -117 71
-40 27 -75 49 -78 49 -12 0 -155 122 -155 132 0 8 51 9 173 4 94 -4 305 -11
467 -16 218 -6 307 -12 341 -23 47 -16 274 -37 392 -37 37 0 67 -4 67 -9 0 -9
-61 -41 -78 -41 -6 0 -32 -11 -59 -24 l-48 -25 30 -12 c17 -6 39 -11 50 -11
10 1 24 -3 30 -7 5 -5 35 -11 65 -15 30 -4 75 -13 100 -21 25 -7 80 -15 123
-18 l77 -4 0 604 c0 397 -4 611 -10 624 -8 14 -7 19 1 19 8 0 7 5 -2 17 -11
13 -11 17 -1 20 6 3 12 19 12 36 0 18 -4 27 -8 21 -4 -6 -17 -16 -30 -23 -33
-17 -52 1 -50 48 1 25 -9 52 -31 89 -18 28 -36 52 -40 52 -9 0 -74 -78 -90
-108 -7 -12 -9 -32 -6 -43 13 -38 -20 -59 -89 -57 -59 2 -64 0 -151 -57 -49
-33 -108 -68 -130 -80 -36 -18 -41 -25 -48 -70 -4 -27 -7 -58 -8 -67 0 -9 -7
-22 -15 -29 -11 -9 -18 -8 -32 5 -10 9 -23 16 -29 16 -5 0 -19 8 -31 18 -25
22 -137 29 -160 9 -12 -10 -17 -8 -26 7 -34 57 -39 59 -130 62 -106 2 -119 11
-110 71 8 56 -4 70 -62 71 -24 1 -49 4 -54 7 -5 3 -18 1 -29 -5 -22 -11 -51 9
-51 36 0 8 -13 20 -28 25 -49 17 -71 58 -73 136 -3 96 -8 103 -77 103 -31 0
-75 7 -97 14 -35 12 -40 18 -43 48 -4 51 -12 79 -21 74 -14 -9 -9 29 7 47 16
18 51 23 53 7 1 -5 2 -15 3 -22 1 -15 34 -19 43 -6 4 7 1 8 -7 3 -9 -5 -11 -4
-6 3 5 9 13 8 29 -3 19 -12 26 -12 52 0 17 8 41 19 55 25 14 5 32 14 40 20 55
34 152 52 166 29 3 -5 14 -9 25 -9 10 0 19 -4 19 -9 0 -5 10 -13 23 -16 12 -4
37 -13 55 -22 19 -8 42 -13 53 -10 10 3 19 1 19 -3 0 -5 15 -12 33 -15 17 -4
70 -25 117 -47 107 -51 172 -55 213 -14 15 15 27 30 27 35 0 14 46 51 55 44 4
-5 5 0 2 10 -4 9 -2 17 3 17 6 0 10 -6 10 -14 0 -8 15 -17 36 -21 29 -5 39 -3
50 13 12 18 18 18 48 8 18 -6 40 -17 49 -24 8 -7 22 -10 31 -6 12 5 16 0 16
-17 0 -37 61 -80 113 -81 23 0 47 -5 54 -10 7 -5 16 -7 21 -4 5 3 21 -2 36
-10 35 -17 46 -18 46 -1 0 14 48 83 55 80 16 -9 33 0 31 15 -1 13 7 17 37 17
l37 0 0 1692 0 1693 -7572 0 c-7210 0 -7570 -1 -7555 -17z m392 -1973 c-3 -5
-2 -10 4 -10 6 0 15 -9 20 -19 8 -14 5 -29 -12 -60 -24 -44 -41 -52 -51 -24
-6 15 -8 15 -16 3 -6 -9 -5 -17 3 -22 8 -5 4 -8 -10 -8 -14 0 -23 -6 -23 -15
0 -8 3 -14 8 -14 24 4 42 -3 42 -17 0 -10 -6 -14 -15 -10 -8 3 -15 1 -15 -4 0
-6 9 -10 20 -10 13 0 22 -9 26 -25 8 -33 -1 -43 -16 -16 -6 12 -18 21 -27 21
-12 0 -13 -3 -3 -15 6 -8 10 -22 7 -32 -4 -15 -5 -14 -6 3 -2 35 -24 47 -49
26 -15 -13 -20 -27 -17 -55 3 -32 1 -37 -17 -37 -15 0 -19 5 -15 20 3 11 0 20
-6 20 -7 0 -3 7 7 15 11 8 16 18 12 22 -4 4 -11 1 -15 -6 -6 -10 -13 -10 -29
-2 -16 8 -25 6 -45 -9 -14 -11 -30 -20 -36 -20 -14 0 -14 27 -1 35 6 4 7 11 3
18 -4 7 -9 4 -13 -8 -5 -15 -9 -13 -27 16 -17 29 -18 37 -6 47 7 7 18 10 23 7
6 -3 10 0 11 7 0 7 5 3 11 -9 8 -17 19 -21 55 -20 24 0 46 4 49 9 3 4 0 8 -5
8 -18 0 -12 23 13 53 13 16 34 27 48 27 17 0 29 9 41 33 18 37 58 87 70 87 5
0 5 -4 2 -10z m-535 -41 c0 -11 -4 -17 -10 -14 -5 3 -10 0 -10 -7 0 -8 -9 -21
-20 -31 -23 -20 -26 -73 -6 -100 12 -16 17 -16 34 -6 11 7 26 24 32 38 10 22
13 24 23 11 17 -22 51 -26 44 -6 -4 9 -2 16 3 16 5 0 11 8 14 18 3 11 5 8 4
-8 -1 -45 2 -48 37 -60 36 -12 47 -30 18 -30 -20 0 -63 -38 -63 -57 0 -21 -17
-15 -23 9 -5 17 -9 19 -21 9 -11 -9 -24 -10 -50 -3 -19 6 -37 8 -39 5 -3 -2
-8 5 -12 16 -7 23 -34 29 -36 9 -5 -41 -3 -64 6 -70 6 -4 2 -8 -7 -8 -10 0
-21 -1 -24 -2 -4 -2 -8 10 -10 25 -2 23 0 26 11 17 11 -9 12 -7 8 12 -3 13
-12 38 -20 56 -14 32 -14 35 6 48 12 9 21 26 21 40 0 13 7 27 16 31 8 3 13 12
10 19 -3 8 -2 13 2 12 15 -3 42 15 42 29 0 8 5 11 10 8 6 -3 10 -15 10 -26z
m-163 -43 c-14 -21 -14 -26 -1 -45 14 -20 13 -24 -14 -59 -35 -45 -43 -65 -32
-82 5 -8 6 -18 3 -23 -6 -10 -43 27 -43 43 0 5 -8 10 -18 10 -24 0 -69 46 -51
52 7 2 9 9 5 17 -5 7 -15 10 -23 7 -9 -4 -13 -1 -10 6 2 7 14 12 25 10 12 -2
22 2 22 7 0 6 11 11 24 11 18 0 27 8 35 31 8 24 15 30 31 26 11 -3 23 -1 26 4
3 5 12 9 21 9 14 0 14 -2 0 -24z m13013 -572 c0 -8 9 -22 20 -31 25 -22 26
-48 1 -70 -18 -15 -19 -19 -5 -52 8 -19 21 -42 28 -51 14 -17 38 -195 30 -226
-4 -16 2 -27 25 -44 42 -29 58 -64 67 -141 3 -35 13 -75 20 -89 7 -14 23 -53
35 -87 l21 -62 -27 -33 c-23 -28 -26 -38 -21 -75 5 -38 3 -43 -14 -43 -11 0
-20 -7 -20 -15 0 -18 -5 -18 -30 -5 -13 7 -19 6 -24 -5 -3 -8 -1 -17 5 -20 5
-4 7 -11 3 -16 -12 -19 -43 29 -46 70 -2 32 -6 40 -18 35 -33 -12 -47 -7 -54
21 -9 36 -54 55 -130 55 -86 0 -96 -5 -96 -46 0 -40 -21 -54 -80 -54 -44 0
-101 22 -121 47 -10 11 -10 19 -1 34 10 16 9 24 -6 47 -44 63 -82 126 -82 135
0 6 -7 18 -16 28 -19 21 -11 54 10 46 7 -3 26 1 42 9 17 9 41 13 59 10 21 -4
44 2 79 20 40 21 57 25 95 19 93 -12 133 -11 144 6 8 12 4 22 -13 39 -15 15
-25 19 -28 12 -5 -16 -55 -15 -70 0 -18 18 -14 65 6 80 22 16 77 88 67 88 -4
0 -3 6 3 13 6 7 11 27 11 43 -1 84 2 122 12 147 10 23 9 30 -6 41 -37 27 -2
83 80 127 32 18 45 16 45 -7z m-9180 -83 c0 -5 7 -16 15 -24 11 -12 23 -13 57
-5 24 5 53 7 65 5 14 -2 29 3 39 14 12 14 21 16 30 8 8 -7 14 -7 19 1 5 8 11
8 20 0 8 -7 20 -8 26 -4 7 4 18 -1 25 -11 10 -13 30 -19 82 -21 38 -2 88 -10
110 -18 26 -9 44 -11 47 -5 4 5 11 6 17 3 6 -4 21 -8 32 -9 49 -3 136 -36 136
-51 0 -13 16 -15 112 -12 80 2 112 0 115 -9 3 -7 10 -10 17 -7 8 3 20 -2 29
-10 20 -21 29 -20 55 4 21 20 22 20 38 1 16 -18 18 -18 48 21 22 29 58 55 125
89 100 52 119 56 154 37 12 -7 48 -15 79 -19 43 -5 68 -15 98 -39 42 -34 48
-54 8 -28 -44 28 -139 58 -187 58 -81 0 -144 -25 -190 -75 -22 -24 -41 -51
-41 -58 0 -8 -8 -25 -18 -38 -11 -13 -32 -49 -49 -79 -16 -30 -40 -73 -52 -94
-13 -23 -20 -48 -17 -60 9 -36 -15 -92 -60 -141 -24 -26 -44 -52 -44 -59 0 -8
9 -25 21 -40 l20 -26 -45 0 c-25 0 -48 -4 -51 -10 -3 -5 -17 -10 -31 -10 -20
0 -24 5 -24 28 0 16 9 37 20 47 27 25 25 53 -4 65 -15 5 -29 22 -36 44 -9 27
-17 36 -34 36 -28 0 -46 -18 -46 -46 0 -13 -3 -25 -7 -27 -5 -3 -106 -8 -225
-12 l-218 -7 0 85 c0 56 -9 122 -25 191 -29 122 -31 164 -10 172 15 6 21 34 7
34 -4 0 -13 14 -19 30 -8 22 -16 28 -28 24 -9 -4 -14 -13 -11 -21 3 -8 -1 -25
-10 -39 -10 -15 -12 -24 -5 -24 28 0 31 -50 10 -158 -13 -66 -20 -142 -20
-199 l2 -91 -57 -4 c-31 -1 -59 -1 -63 2 -16 11 -20 80 -5 94 8 8 14 24 14 35
0 18 -6 21 -44 21 -27 0 -46 5 -49 13 -8 21 -9 311 -1 378 4 40 11 59 20 59 8
0 14 -4 14 -9z m-1800 -20 c0 -6 -5 -13 -10 -16 -7 -4 -6 -13 1 -26 6 -11 12
-46 14 -77 2 -31 9 -111 14 -177 6 -65 9 -121 7 -123 -2 -2 -25 -5 -50 -6 -59
-4 -64 -10 -44 -44 l17 -28 -42 -11 c-23 -7 -59 -14 -79 -18 l-38 -6 0 79 c0
53 -9 113 -25 176 -31 119 -32 146 -5 153 23 6 27 31 5 39 -30 12 -14 19 40
18 32 0 60 5 65 11 11 14 80 9 95 -6 19 -19 23 -8 9 21 -9 16 -13 34 -9 40 8
13 35 13 35 1z m7979 -207 c14 -1 50 -7 80 -14 38 -8 57 -8 64 -1 15 15 40 14
79 -3 36 -15 114 -34 163 -39 17 -2 40 -10 52 -18 16 -10 26 -10 33 -3 8 8 22
8 48 -2 20 -7 61 -13 90 -14 30 0 52 -5 52 -11 0 -6 7 -4 15 5 15 15 45 12 45
-4 0 -4 9 -10 21 -13 12 -3 18 -10 15 -15 -3 -5 7 -8 22 -6 15 2 38 -5 52 -14
14 -9 43 -17 65 -19 73 -5 91 -13 118 -55 10 -16 21 -27 26 -25 5 1 10 -2 12
-8 6 -22 39 -47 53 -42 10 4 16 1 16 -8 0 -9 15 -17 38 -20 20 -4 52 -11 70
-15 19 -5 40 -6 48 -3 8 3 14 0 14 -7 0 -7 6 -6 16 4 18 18 30 20 39 6 4 -6 9
-8 13 -6 4 2 12 -2 19 -9 9 -10 1 -27 -35 -79 -87 -123 -95 -139 -83 -158 15
-24 14 -80 -3 -103 -13 -18 -14 -17 -31 8 -9 15 -26 27 -36 27 -21 0 -25 -20
-7 -38 8 -8 8 -12 1 -12 -6 0 -13 7 -17 15 -3 9 -18 15 -39 15 -19 0 -40 -7
-47 -15 -23 -28 -61 -18 -97 25 -52 60 -87 51 -42 -11 l20 -29 -113 0 c-96 0
-119 3 -153 21 -37 20 -39 20 -52 3 -7 -10 -16 -15 -19 -11 -4 4 -1 13 6 22
10 12 9 16 -5 21 -12 5 -23 -1 -36 -17 l-18 -24 -34 38 c-19 20 -40 37 -46 37
-14 0 -15 -27 -1 -35 5 -3 15 -16 21 -27 11 -21 10 -21 -51 -15 -54 6 -61 5
-50 -8 15 -18 5 -35 -21 -35 -21 0 -26 -16 -6 -23 14 -6 -33 -52 -109 -107
-27 -19 -67 -52 -89 -72 -39 -35 -44 -37 -150 -47 -65 -6 -116 -6 -125 -1 -10
5 -89 8 -176 7 l-159 -2 1 32 c1 17 9 46 18 64 9 18 16 40 16 49 0 9 11 22 25
28 14 6 25 17 26 24 0 7 0 50 -1 96 l-1 82 28 0 c34 0 73 10 73 19 0 3 -55 37
-122 75 -68 38 -149 85 -180 104 l-57 34 -135 -4 c-92 -2 -139 -7 -148 -16
-10 -10 -8 -14 10 -18 12 -4 22 -10 22 -15 0 -14 28 -11 32 3 8 22 71 -35 98
-87 22 -43 23 -48 8 -59 -15 -11 -15 -13 1 -23 15 -10 17 -19 11 -60 -8 -51
-3 -100 11 -109 18 -11 8 -32 -18 -42 -23 -7 -60 -8 -118 -1 -5 0 -62 0 -126
-1 l-115 -2 4 -29 c2 -16 13 -34 23 -40 13 -6 19 -21 19 -42 0 -39 8 -52 37
-61 22 -7 22 -8 6 -42 -12 -24 -23 -34 -40 -34 -19 0 -23 5 -23 30 0 28 -2 29
-20 18 -16 -10 -22 -10 -28 -1 -8 13 -114 22 -352 28 -85 2 -159 4 -164 5 -12
0 0 104 16 132 7 12 13 32 13 43 0 11 11 25 25 32 24 12 25 16 25 105 0 87 1
93 20 91 28 -4 65 6 65 17 0 8 -102 69 -247 146 l-68 36 -6 -29 c-4 -15 -7
-46 -8 -67 0 -22 -9 -48 -18 -58 -12 -13 -18 -40 -20 -85 -1 -44 -8 -72 -18
-82 -14 -14 -17 -14 -25 -1 -5 8 -10 35 -10 60 -1 42 -2 44 -15 26 -20 -26
-18 -53 5 -101 29 -61 29 -61 -33 -135 -15 -18 -31 -30 -34 -26 -4 3 2 13 13
20 18 14 18 15 -7 24 -15 6 -29 18 -32 26 -4 9 -11 16 -17 16 -7 0 -8 -6 -1
-18 18 -34 -3 -46 -85 -48 -42 -2 -81 -7 -86 -12 -6 -6 -17 -8 -24 -5 -8 3
-14 1 -14 -5 0 -12 29 -37 36 -30 2 3 30 -1 62 -9 31 -8 74 -16 95 -18 84 -9
67 -39 -27 -50 -44 -4 -70 -12 -82 -26 -16 -18 -16 -19 4 -19 11 0 24 -4 27
-10 3 -5 13 -10 22 -10 11 0 14 7 11 25 -3 16 -1 25 7 25 19 0 32 -21 39 -64
8 -40 30 -83 55 -102 10 -7 11 -16 4 -30 -5 -10 -8 -94 -7 -186 1 -93 -2 -168
-6 -168 -5 0 -19 -10 -30 -22 -17 -18 -24 -20 -39 -11 -9 6 -53 14 -97 18 -43
4 -89 13 -102 21 -20 13 -29 12 -85 -10 -34 -13 -74 -27 -89 -30 -40 -9 -34
-26 8 -24 35 1 59 -16 47 -35 -3 -5 -33 -7 -69 -3 -54 5 -70 3 -105 -15 -96
-49 -274 -74 -300 -43 -10 12 -18 8 -48 -24 -28 -31 -40 -38 -56 -32 -11 5
-30 6 -42 3 -13 -3 -25 1 -30 12 -9 15 -13 14 -38 -9 l-28 -26 78 7 c64 5 77
4 73 -8 -6 -17 -208 -26 -208 -9 0 5 7 10 15 10 25 0 17 22 -17 49 -15 11 -23
9 -58 -19 -27 -21 -46 -29 -59 -25 -11 3 -22 1 -26 -5 -3 -5 -1 -10 4 -10 18
0 12 -28 -6 -33 -10 -3 -54 -5 -98 -5 l-81 0 0 34 c0 44 -5 48 -40 30 -16 -8
-37 -18 -48 -21 -13 -4 -17 -12 -14 -29 6 -30 -7 -34 -117 -36 -117 -2 -118
-2 -112 15 4 9 -12 29 -45 55 -136 108 -168 150 -168 222 l0 43 98 37 97 36
662 -3 c605 -2 665 -4 689 -20 14 -9 28 -14 32 -11 15 15 30 81 22 95 -4 9 -7
58 -5 109 3 89 -1 102 -21 83 -5 -5 -97 -12 -204 -15 -223 -6 -341 -15 -355
-26 -5 -5 -37 -8 -70 -9 -33 -1 -91 -4 -130 -7 -80 -7 -96 -8 -262 -3 -68 2
-123 7 -123 11 0 3 -7 14 -16 22 -22 22 -154 23 -154 1 0 -8 -9 -19 -19 -25
-26 -13 -28 -13 -28 5 0 8 6 15 12 15 16 0 35 98 25 126 -18 46 -71 94 -111
100 -25 4 -44 15 -54 31 -18 27 -207 154 -311 209 -35 18 -85 39 -111 45 -80
18 -78 17 -56 42 31 34 49 75 78 178 31 110 30 153 -9 254 l-27 69 23 17 c15
12 25 14 29 7 5 -8 16 -6 35 7 15 10 29 14 31 8 4 -12 63 -5 81 10 7 6 33 9
57 9 26 -1 45 2 45 8 0 7 29 9 87 6 74 -5 88 -3 99 12 8 10 13 12 14 5 0 -8
13 -13 30 -13 20 0 28 4 24 13 -3 9 9 18 34 25 48 15 72 15 72 2 0 -5 8 -10
17 -10 25 0 3 -17 -27 -22 -21 -4 -19 -6 14 -12 26 -6 40 -5 45 3 5 8 41 11
108 10 99 -1 129 4 118 21 -11 18 57 29 178 27 112 -2 131 -5 142 -21 25 -34
145 -25 145 12 0 11 8 13 33 8 56 -12 110 -4 137 20 15 12 19 14 40 14 6 0 10
6 10 13 0 7 8 13 19 13 12 0 17 -5 13 -14 -3 -10 3 -13 24 -10 24 2 29 7 26
28 -2 18 0 21 6 12 5 -8 11 -13 13 -12 6 2 41 -10 61 -21 23 -12 31 -11 23 1
-3 6 3 10 13 10 11 0 34 3 51 6 27 6 31 4 31 -15 0 -12 4 -19 10 -16 6 3 10 1
10 -4 0 -6 20 -11 44 -11 25 0 48 -5 52 -11 3 -6 15 -8 26 -6 12 4 30 -5 50
-25 26 -26 36 -29 67 -24 19 3 65 1 101 -4 36 -5 97 -12 135 -15 73 -6 503
-16 590 -13 28 1 61 1 75 1 14 0 144 -1 290 -2 145 -1 269 -6 275 -11 5 -4 19
-10 30 -12 11 -1 23 -7 27 -13 5 -6 8 -5 8 3 0 17 25 15 40 -3 7 -8 16 -12 21
-9 5 3 9 0 9 -6 0 -12 138 -9 185 3 11 3 26 6 33 6 6 1 12 7 12 14 0 8 12 20
28 27 15 8 34 19 42 26 8 6 32 17 53 24 20 6 35 15 32 20 -3 5 0 12 5 15 7 4
9 19 5 35 -6 25 -2 30 27 43 58 26 62 26 92 -6 16 -16 40 -31 55 -33z m-1641
-1181 c26 -4 34 -11 40 -37 8 -29 12 -31 63 -37 30 -3 71 -13 93 -22 21 -9 51
-17 66 -17 34 0 119 -41 145 -70 17 -19 17 -21 2 -33 -19 -14 -34 -67 -19 -67
5 0 13 8 17 18 6 15 9 14 27 -8 l20 -25 -26 -3 c-20 -3 -26 -9 -26 -28 0 -13
-4 -24 -10 -24 -5 0 -10 -5 -10 -11 0 -5 9 -9 20 -7 35 6 22 -16 -21 -32 -23
-9 -47 -24 -53 -32 -16 -22 -76 -12 -76 13 0 28 -17 23 -24 -6 -4 -14 -14 -25
-23 -25 -22 0 -12 71 16 106 19 25 20 28 4 39 -18 13 -10 35 13 35 21 0 17 18
-6 25 -11 4 -27 20 -36 36 -21 42 -76 65 -116 48 -16 -6 -33 -20 -38 -30 -6
-10 -10 -67 -10 -128 0 -60 -3 -116 -6 -125 -11 -30 -24 -5 -24 46 0 48 -1 50
-17 36 -10 -8 -26 -18 -35 -21 -23 -8 -12 -37 13 -37 10 0 19 -6 19 -14 0 -10
-16 -17 -45 -22 -25 -3 -45 -11 -45 -16 0 -6 -6 -5 -14 2 -11 8 -12 18 -6 36
6 15 6 34 0 50 -6 14 -7 33 -2 42 12 27 8 108 -7 126 -11 13 -11 19 0 32 7 9
13 32 14 52 0 27 5 38 18 40 9 2 15 7 12 12 -3 4 -14 6 -25 3 -26 -7 -37 21
-17 42 9 8 13 24 10 36 -6 21 -4 21 43 15 27 -4 64 -10 82 -13z m692 -268 c0
-8 8 -15 19 -15 10 0 24 -7 31 -15 7 -8 24 -15 39 -15 14 0 42 -13 61 -29 27
-23 32 -32 22 -43 -7 -9 -9 -29 -5 -51 3 -20 2 -38 -3 -38 -5 -1 -42 -3 -82
-4 -65 -3 -74 -1 -87 19 -18 27 -37 148 -29 181 7 27 34 35 34 10z m-10488
-154 c322 -4 430 -9 440 -19 9 -9 9 -24 -1 -74 -24 -117 -38 -128 -172 -128
-67 0 -97 -22 -144 -105 -16 -27 -29 -51 -30 -52 -4 -6 -235 36 -253 46 -11 6
-36 11 -55 11 -29 0 -219 70 -239 89 -4 4 -17 55 -29 114 -23 121 -18 144 30
131 14 -4 218 -10 453 -13z m8818 -220 c22 -6 25 -12 22 -48 -3 -34 0 -41 17
-46 33 -8 25 -31 -31 -97 -29 -34 -59 -72 -67 -83 -18 -28 -77 -67 -101 -67
-10 0 -30 4 -44 10 -14 5 -92 11 -173 14 -287 10 -439 17 -538 28 -55 5 -134
13 -176 17 -42 4 -81 11 -87 15 -18 11 -16 150 2 165 7 6 58 16 112 21 152 15
150 15 164 -22 l11 -33 17 21 c9 12 22 29 27 38 8 14 34 18 138 23 l127 6 0
-31 c0 -55 47 -53 52 1 3 31 4 32 78 45 41 7 98 11 125 10 l50 -3 -3 -46 c-3
-45 -2 -46 35 -57 21 -6 41 -8 46 -3 4 4 3 29 -3 56 -6 26 -8 50 -5 53 16 16
163 25 205 13z m1915 -97 c100 -6 110 -8 113 -28 6 -27 -12 -39 -66 -46 -42
-4 -47 -8 -47 -30 0 -22 5 -25 38 -28 40 -3 52 -22 13 -22 -19 0 -23 -5 -23
-25 0 -36 -9 -41 -49 -26 -20 7 -38 10 -41 7 -9 -9 1 -16 44 -31 23 -9 36 -19
34 -27 -3 -7 -4 -27 -3 -45 1 -18 -3 -35 -8 -38 -6 -3 -70 -1 -142 5 -73 6
-200 13 -283 15 -82 2 -186 7 -230 10 -44 3 -107 8 -140 10 -184 13 -205 17
-205 36 0 11 6 19 14 19 46 0 21 45 -87 161 -67 71 -76 84 -60 91 16 7 1011 0
1128 -8z m296 -274 l59 0 0 -39 c0 -44 -13 -53 -71 -50 -48 3 -127 29 -133 44
-2 7 2 23 11 35 12 17 22 21 46 16 16 -3 56 -6 88 -6z m5742 -507 c39 -22 -81
-62 -207 -70 -96 -6 -100 -5 -83 11 9 10 15 22 12 26 -8 13 62 30 125 31 30 0
64 4 75 9 18 7 58 4 78 -7z m-3920 -725 c12 -7 42 -17 67 -23 39 -9 45 -14 48
-38 4 -33 -17 -37 -36 -6 -12 20 -15 20 -32 4 -11 -10 -37 -17 -71 -17 -56 -2
-65 -6 -107 -50 -24 -25 -28 -26 -43 -12 -10 9 -42 17 -84 19 -37 2 -69 6 -72
9 -3 2 -2 14 2 26 5 17 12 20 30 16 13 -3 25 -1 27 5 5 15 35 1 41 -20 5 -20
31 -21 66 -2 23 13 24 14 6 27 -10 7 -21 11 -26 9 -4 -3 -11 -1 -14 5 -4 7 3
10 22 8 25 -3 28 0 25 25 l-3 27 66 0 c37 0 76 -6 88 -12z m-2318 -849 c5 -5
19 -9 32 -9 18 0 43 -25 43 -43 0 -10 -40 -15 -46 -6 -9 16 -37 10 -61 -13
-23 -21 -40 -26 -123 -31 -29 -2 -35 1 -35 17 0 16 11 22 48 30 36 8 45 14 37
22 -9 9 -9 17 -1 32 9 17 18 19 53 15 24 -3 47 -9 53 -14z m5741 -1297 c6 -9
18 -13 26 -10 14 6 47 -65 62 -134 4 -16 10 -28 15 -28 5 0 26 -16 46 -35 43
-40 43 -72 -1 -61 -30 8 -54 -8 -54 -34 0 -15 12 -19 60 -25 35 -4 66 -3 73 2
28 22 47 23 47 3 0 -13 -12 -26 -35 -37 -27 -13 -35 -23 -35 -44 0 -15 -7 -35
-16 -43 -27 -28 -5 -39 33 -16 24 14 38 18 43 10 4 -7 15 -6 36 5 46 23 51 18
16 -18 -35 -36 -41 -61 -16 -71 19 -7 9 -26 -15 -26 -9 0 -33 -13 -51 -30 -27
-24 -42 -30 -81 -30 -42 0 -48 -3 -51 -22 -2 -18 -9 -22 -29 -20 -25 2 -77
-16 -111 -40 -22 -16 -71 5 -66 29 2 9 39 35 82 57 44 23 81 47 84 54 6 19
-20 14 -58 -11 -34 -23 -37 -23 -160 -12 -101 8 -124 13 -122 25 2 8 7 19 11
23 20 20 149 36 165 20 4 -4 -3 -15 -16 -24 -12 -10 -20 -21 -16 -25 12 -11
90 25 158 74 2 1 -4 18 -14 37 -16 29 -18 46 -11 107 11 103 8 169 -10 238 -9
34 -13 65 -9 71 3 6 -1 16 -9 22 -8 7 -17 19 -20 28 -4 13 -1 16 16 11 12 -3
27 -12 33 -20z m-112 -281 c7 -11 -18 -33 -27 -24 -4 3 -7 2 -7 -4 0 -6 9 -13
20 -16 20 -5 32 -28 44 -83 l7 -31 -68 3 c-87 3 -155 14 -167 25 -6 6 -3 9 8
9 10 0 42 7 71 15 44 13 54 21 60 43 13 52 45 87 59 63z m-104 -332 c0 -8 13
-9 40 -5 46 7 52 -4 15 -28 -34 -22 -85 -32 -94 -17 -5 8 -20 8 -57 0 -97 -21
-104 -21 -119 -9 -13 11 -9 17 32 41 39 23 60 28 116 28 43 1 67 -3 67 -10z
m-3347 -183 c3 -8 3 -23 1 -34 -4 -13 3 -26 20 -40 23 -17 26 -26 22 -64 -5
-66 -26 -108 -53 -108 -12 0 -25 5 -28 10 -3 6 -10 10 -16 10 -13 0 -11 -37 2
-46 6 -3 8 -18 6 -33 -9 -44 12 -89 45 -93 34 -5 44 5 25 24 -15 13 -11 48 7
60 8 5 8 10 -1 19 -8 8 -16 8 -33 -1 -29 -15 -36 -7 -16 22 9 12 16 17 16 10
0 -7 3 -11 8 -9 17 10 47 -11 47 -34 0 -20 6 -25 40 -29 57 -8 70 -18 52 -38
-8 -10 -18 -28 -22 -41 -6 -19 -4 -23 9 -18 28 11 27 -11 -3 -29 -24 -14 -29
-25 -34 -74 -9 -84 -14 -92 -52 -87 -17 2 -43 11 -56 20 -40 25 -88 31 -95 12
-6 -14 -19 -15 -109 -9 -102 7 -142 1 -114 -17 8 -5 30 -9 50 -9 24 0 39 -5
43 -16 9 -24 8 -31 -18 -61 -22 -27 -39 -82 -40 -133 -1 -22 -7 -26 -46 -31
-42 -6 -86 -3 -120 8 -12 4 -11 8 6 22 21 17 21 18 4 57 -34 79 -38 100 -24
119 8 10 14 29 14 42 0 23 15 32 22 12 2 -6 15 -9 28 -7 27 5 30 3 -33 27 -17
6 -17 8 2 30 24 28 22 32 -48 99 -53 50 -87 57 -123 25 -14 -13 -17 -13 -21 4
-4 14 -5 12 -6 -6 -1 -23 -2 -23 -20 -7 -14 13 -17 26 -13 61 4 40 2 45 -22
56 -32 15 -33 22 -3 42 12 8 38 31 59 50 30 30 46 36 95 41 32 4 89 11 127 17
38 5 73 6 77 2 4 -4 3 -30 -2 -58 -8 -41 -6 -57 8 -87 19 -39 27 -45 38 -28 3
6 1 10 -6 10 -9 0 -8 4 3 13 25 20 29 45 8 52 -28 9 -31 31 -11 83 11 27 18
70 18 101 -1 45 3 56 23 71 14 10 27 17 31 15 3 -3 9 -28 12 -56 8 -62 17 -74
60 -74 30 0 32 -2 35 -42 3 -41 22 -62 22 -24 0 36 22 81 40 81 12 0 20 -12
26 -42 13 -58 31 -60 36 -2 2 35 -2 56 -19 86 -15 26 -21 48 -17 64 7 26 29
32 37 10z"/>
<path d="M11513 6733 c-12 -29 -17 -83 -19 -215 -2 -98 -2 -178 0 -178 2 0 20
7 39 15 29 12 37 22 43 50 3 19 3 42 0 51 -4 9 -1 23 5 30 7 9 8 40 3 101 -5
48 -7 98 -6 110 3 24 -24 73 -40 73 -5 0 -16 -17 -25 -37z"/>
<path d="M3827 10427 c-9 -14 -30 -28 -48 -32 -29 -7 -30 -9 -24 -42 6 -34 5
-35 -19 -29 -19 5 -26 2 -31 -14 -10 -32 -33 -24 -37 12 -2 23 -11 37 -31 48
-26 14 -29 14 -46 -9 -12 -16 -21 -20 -25 -12 -4 6 -5 15 -2 19 2 4 -9 9 -25
10 -24 2 -29 -2 -31 -20 0 -13 -2 -35 -3 -49 -1 -15 -13 -42 -26 -60 -13 -19
-25 -37 -25 -41 -1 -5 -2 -12 -3 -18 -2 -15 -57 -40 -91 -40 -33 0 -41 19 -11
27 12 3 17 11 14 19 -9 24 17 74 39 74 18 0 19 4 13 38 -4 20 -8 39 -10 40 -2
2 -23 6 -47 9 -24 2 -71 14 -104 25 l-62 21 -30 -22 c-26 -18 -37 -20 -64 -13
-52 14 -114 -12 -144 -60 -14 -22 -38 -44 -55 -50 -21 -7 -29 -16 -29 -33 0
-13 4 -26 8 -29 5 -3 7 -18 4 -34 -3 -24 2 -32 35 -55 22 -15 49 -27 61 -27
12 0 27 -7 34 -15 29 -35 85 -76 135 -100 33 -15 123 -21 123 -7 0 12 103 13
132 1 15 -6 30 -21 34 -32 4 -12 16 -36 28 -54 16 -26 28 -33 53 -33 17 0 33
-5 35 -11 3 -9 28 -9 100 0 121 14 188 14 188 0 0 -18 84 -6 88 12 2 14 -4 16
-36 12 -23 -3 -43 0 -47 6 -4 8 16 11 64 11 68 0 77 4 72 32 0 5 9 19 21 34
19 21 29 24 55 19 33 -6 46 8 18 19 -8 3 -15 13 -15 23 0 14 -2 15 -9 4 -5 -8
-11 -9 -15 -3 -14 24 70 32 87 8 6 -7 7 -6 4 4 -2 8 2 21 10 28 7 8 11 18 8
23 -4 5 1 9 9 9 18 0 13 39 -6 52 -12 7 -52 12 -71 9 -5 -1 -6 3 -2 9 5 9 -15
15 -37 11 -5 0 -8 3 -8 8 0 6 19 14 42 18 33 7 43 13 43 28 0 13 8 19 26 20
37 2 49 13 49 42 0 29 -33 63 -61 63 -10 0 -21 5 -24 10 -9 15 -51 12 -65 -5
-7 -8 -10 -15 -6 -15 3 0 -4 -11 -16 -25 -27 -31 -38 -32 -38 -1 0 41 12 88
20 76 5 -8 12 -7 23 5 15 14 15 17 -1 35 -9 11 -29 20 -44 20 -16 0 -28 4 -28
8 0 4 -9 8 -20 8 -11 0 -20 -4 -20 -8 0 -13 -58 -9 -62 3 -2 7 -11 0 -21 -14z"/>
<path d="M2360 10300 c-25 -4 -60 -5 -77 -2 -21 3 -33 0 -33 -7 0 -6 -7 -11
-15 -11 -20 0 -19 -20 2 -35 10 -7 18 -27 19 -44 3 -56 62 -97 93 -66 14 14
14 17 1 25 -8 5 -23 10 -32 10 -12 0 -18 8 -18 25 0 18 5 25 19 25 11 0 22 -4
26 -10 8 -14 75 -6 86 11 14 22 11 45 -8 66 -15 16 -25 19 -63 13z"/>
<path d="M2696 9971 c-3 -4 -22 -11 -43 -13 -21 -3 -67 -19 -103 -36 -36 -16
-81 -33 -100 -36 -19 -4 -48 -9 -65 -12 -16 -3 -44 -12 -62 -20 -17 -8 -38
-14 -46 -14 -8 0 -26 -9 -40 -20 -18 -14 -34 -19 -51 -14 -19 5 -26 2 -26 -9
0 -10 7 -13 20 -10 15 4 20 0 20 -15 0 -12 -9 -23 -20 -27 -11 -3 -20 -10 -20
-15 0 -5 -10 -12 -21 -15 -16 -5 -18 -9 -9 -15 9 -6 2 -10 -21 -14 -19 -3 -50
-8 -69 -11 -19 -4 -56 -9 -82 -12 -45 -5 -46 -6 -36 -29 13 -28 36 -37 103
-39 71 -2 208 16 222 29 7 6 13 32 14 58 3 65 21 73 148 65 55 -3 101 -3 103
1 2 4 17 14 33 23 27 14 30 20 30 64 l0 50 37 -3 c42 -4 148 17 148 29 0 4 7
14 15 22 13 13 10 17 -25 31 -47 19 -47 19 -54 7z"/>
<path d="M3467 9753 c-39 -3 -48 -7 -45 -21 3 -11 12 -16 31 -15 24 2 26 -1
20 -28 -4 -24 -2 -29 13 -29 51 -1 165 -9 211 -14 29 -4 54 -2 57 3 10 16 -5
41 -25 41 -10 0 -19 4 -19 9 0 9 -42 20 -96 25 -17 1 -41 10 -55 19 -13 9 -28
16 -34 15 -5 -1 -32 -3 -58 -5z"/>
<path d="M1780 9620 c0 -5 -7 -10 -15 -10 -8 0 -15 -4 -15 -9 0 -5 -18 -16
-39 -25 -28 -11 -39 -21 -38 -35 1 -16 12 -20 72 -26 144 -14 211 -10 268 13
32 13 51 40 30 43 -5 0 -18 2 -30 3 -12 1 -20 0 -18 -4 5 -8 -39 -30 -60 -30
-8 0 -33 10 -55 21 -32 17 -40 26 -36 41 4 16 1 19 -15 15 -10 -3 -22 -1 -25
4 -7 12 -24 11 -24 -1z"/>
<path d="M863 9511 c-9 -8 -24 -16 -34 -16 -11 -1 -26 -10 -35 -21 -11 -13
-17 -15 -20 -6 -6 13 -86 16 -119 3 -19 -7 -18 -9 5 -21 16 -9 57 -13 115 -12
95 1 125 -4 125 -19 0 -5 -8 -9 -17 -10 -12 -1 -10 -4 7 -9 24 -8 24 -8 3 -9
-13 -1 -22 -6 -20 -12 1 -7 -12 -16 -30 -21 -18 -4 -35 -13 -38 -18 -3 -6 -25
-10 -47 -10 -22 0 -59 -5 -82 -11 -22 -6 -63 -17 -91 -24 -27 -8 -80 -17 -118
-20 -37 -4 -65 -11 -62 -16 7 -10 -29 -12 -62 -3 -27 7 -31 34 -5 35 33 1 -20
18 -60 18 -36 1 -43 -5 -39 -35 3 -25 -91 -41 -118 -20 -11 8 -15 8 -18 -2 -3
-6 -9 -10 -14 -6 -5 3 -9 0 -9 -6 0 -6 -11 -8 -25 -6 l-25 5 0 -124 0 -124 68
0 c73 -1 228 -16 252 -25 32 -12 126 -22 265 -30 60 -3 135 -30 135 -48 0 -5
15 -6 33 -3 17 3 98 7 179 9 100 2 152 7 163 16 9 8 27 10 51 6 22 -5 41 -3
50 4 16 14 86 8 132 -11 24 -10 35 -11 40 -2 11 17 118 7 159 -15 12 -7 24 -8
27 -4 7 11 69 2 78 -11 4 -7 19 -7 46 2 22 8 52 11 66 7 16 -4 38 0 56 9 16 8
36 15 46 15 9 0 44 13 78 30 59 28 79 30 117 16 24 -10 53 28 45 59 -4 16 -11
23 -19 20 -7 -4 -1 3 12 14 27 25 31 25 54 8 17 -11 17 -14 1 -45 -9 -18 -13
-39 -10 -47 4 -11 -2 -15 -22 -16 -23 -2 -24 -2 -4 -6 12 -2 22 -9 22 -14 0
-5 7 -9 15 -9 8 0 15 -4 15 -9 0 -5 12 -11 28 -14 l27 -4 -32 -8 c-46 -11 -43
-37 12 -93 25 -26 52 -55 62 -64 9 -10 25 -16 37 -13 12 2 33 4 49 4 21 1 27
6 27 24 0 12 10 28 22 36 19 12 20 14 5 23 -9 5 -17 19 -17 31 0 31 -18 47
-52 47 -19 0 -28 5 -28 16 0 8 4 13 9 9 11 -6 78 22 106 46 27 23 92 40 118
31 12 -4 33 -7 47 -7 14 0 28 -4 32 -10 5 -6 8 -5 8 3 0 6 11 12 25 12 16 0
25 6 25 15 0 9 7 18 15 21 21 8 19 27 -5 42 -15 9 -18 17 -11 35 11 28 4 42
-26 51 -31 10 -54 79 -25 74 27 -5 40 64 19 96 -15 23 -20 24 -42 14 -14 -6
-25 -14 -25 -18 0 -11 -53 1 -71 16 -18 16 -139 18 -207 3 -37 -8 -48 -6 -72
11 -30 21 -60 26 -60 10 0 -5 -25 -10 -55 -10 -39 0 -54 -4 -52 -12 1 -8 -10
-14 -25 -16 -16 -2 -28 -8 -28 -13 0 -6 -7 -6 -19 1 -11 5 -31 10 -45 10 -14
0 -27 4 -30 9 -9 13 -78 21 -92 11 -13 -12 -47 -2 -39 10 3 5 -8 11 -25 15
-16 4 -32 11 -35 16 -4 5 -15 9 -25 9 -10 0 -31 5 -47 11 -33 13 -73 18 -67 7
2 -3 0 -9 -6 -13 -6 -3 -13 1 -16 9 -5 12 -20 16 -60 16 -30 0 -54 -4 -54 -10
0 -5 -13 -10 -30 -10 -16 0 -30 4 -30 9 0 6 -29 9 -64 8 -38 -1 -69 3 -78 11
-12 10 -21 9 -47 -4 -31 -15 -33 -15 -53 5 -11 12 -17 29 -14 37 4 10 -3 14
-30 14 -28 0 -34 -4 -32 -17 2 -12 -4 -19 -20 -21 -18 -3 -22 1 -20 19 2 15
-5 27 -19 34 -13 7 -20 15 -15 20 4 4 -1 5 -10 2 -10 -4 -18 -2 -18 3 0 6 -5
10 -11 10 -5 0 -7 -4 -4 -10 3 -5 1 -10 -4 -10 -6 0 -11 4 -11 9 0 16 -71 18
-87 2z"/>
<path d="M1212 8531 c-12 -8 -22 -61 -11 -61 5 0 9 6 10 13 0 6 4 3 9 -9 7
-19 19 -22 99 -26 59 -4 99 -11 115 -22 34 -22 36 -21 36 14 0 23 6 33 23 39
12 5 26 6 31 3 5 -3 6 0 2 6 -4 7 -1 12 6 13 7 0 2 5 -11 10 -15 6 -28 6 -36
-1 -7 -6 -20 -8 -29 -4 -9 3 -16 1 -16 -6 0 -7 -8 -9 -20 -5 -27 9 -60 -3 -60
-22 0 -22 -24 -10 -28 14 -2 15 -9 19 -28 15 -17 -3 -24 0 -24 12 0 9 -3 17
-7 17 -30 5 -53 5 -61 0z"/>
</g>
</svg>
